<?xml version="1.0" encoding="UTF-8" standalone="no"?>
<svg
        xmlns:dc="http://purl.org/dc/elements/1.1/"
        xmlns:cc="http://creativecommons.org/ns#"
        xmlns:rdf="http://www.w3.org/1999/02/22-rdf-syntax-ns#"
        xmlns="http://www.w3.org/2000/svg"
        xmlns:sodipodi="http://sodipodi.sourceforge.net/DTD/sodipodi-0.dtd"
        xmlns:inkscape="http://www.inkscape.org/namespaces/inkscape"
        width="169.21249"
        height="32.060001"
        viewBox="0 0 169.21249 32.060001"
        fill="none"
        version="1.1"
        id="svg34"
        sodipodi:docname="name-and-logo.svg"
        inkscape:version="1.0.1 (3bc2e813f5, 2020-09-07)">
    <metadata
            id="metadata40">
        <rdf:RDF>
            <cc:Work
                    rdf:about="">
                <dc:format>image/svg+xml</dc:format>
                <dc:type
                        rdf:resource="http://purl.org/dc/dcmitype/StillImage"/>
                <dc:title></dc:title>
            </cc:Work>
        </rdf:RDF>
    </metadata>
    <defs
            id="defs38"/>
    <sodipodi:namedview
            pagecolor="#ffffff"
            bordercolor="#666666"
            borderopacity="1"
            objecttolerance="10"
            gridtolerance="10"
            guidetolerance="10"
            inkscape:pageopacity="0"
            inkscape:pageshadow="2"
            inkscape:window-width="1920"
            inkscape:window-height="1016"
            id="namedview36"
            showgrid="false"
            fit-margin-top="0"
            fit-margin-left="0"
            fit-margin-right="0"
            fit-margin-bottom="0"
            inkscape:zoom="2.6874145"
            inkscape:cx="-12.74228"
            inkscape:cy="24.460278"
            inkscape:window-x="0"
            inkscape:window-y="27"
            inkscape:window-maximized="1"
            inkscape:current-layer="svg34"/>
    <circle
            cx="43.532501"
            cy="14.3025"
            r="10"
            fill="#235b59"
            id="circle2"/>
    <circle
            cx="48.032402"
            cy="10.8025"
            r="2.5"
            fill="#ffffff"
            id="circle4"/>
    <circle
            cx="50.818203"
            cy="13.5882"
            r="1"
            fill="#ffffff"
            id="circle6"/>
    <path
            d="m 40.0325,24.2985 -0.3027,0.5399 c -0.3738,0.6666 0.108,1.4891 0.8722,1.4891 h 6.1348 c 0.7679,0 1.2492,-0.8295 0.8683,-1.4961 l -0.3045,-0.5329"
            stroke="#235b59"
            stroke-width="3"
            id="path8"/>
    <circle
            cx="43.532501"
            cy="14.3025"
            r="10"
            fill="#235b59"
            id="circle10"/>
    <path
            d="m 50.6753,10.7311 c -2,0.4285 -2,0.4285 -2.4286,2.4285 -0.4286,-2 -0.4286,-2 -2.4286,-2.4285 2,-0.4286 2,-0.4286 2.4286,-2.4286 0.4286,2 0.4286,2 2.4286,2.4286 z"
            fill="#ffffff"
            id="path12"/>
    <path
            d="m 40.0325,24.2985 -0.3027,0.5399 c -0.3738,0.6666 0.108,1.4891 0.8722,1.4891 h 6.1348 c 0.7679,0 1.2492,-0.8295 0.8683,-1.4961 l -0.3045,-0.5329"
            stroke="#235b59"
            stroke-width="3"
            id="path14"/>
    <circle
            cx="43.532501"
            cy="14.3025"
            r="10"
            fill="#235b59"
            id="circle16"/>
    <path
            d="m 50.961,11.8739 c -2.9412,0.6303 -2.9412,0.6303 -3.5714,3.5715 -0.6303,-2.9412 -0.6303,-2.9412 -3.5715,-3.5715 2.9412,-0.6302 2.9412,-0.6302 3.5715,-3.5714 0.6302,2.9412 0.6302,2.9412 3.5714,3.5714 z"
            fill="#ffffff"
            id="path18"/>
    <path
            d="m 40.0325,24.2985 -0.3027,0.5399 c -0.3738,0.6666 0.108,1.4891 0.8722,1.4891 h 6.1348 c 0.7679,0 1.2492,-0.8295 0.8683,-1.4961 l -0.3045,-0.5329"
            stroke="#235b59"
            stroke-width="3"
            id="path20"/>
    <circle
            cx="43.532501"
            cy="14.3025"
            r="10"
            fill="#235b59"
            id="circle22"/>
    <path
            d="m 52.1038,12.8739 c -4.7058,1.0084 -4.7058,1.0084 -5.7143,5.7143 -1.0084,-4.7059 -1.0084,-4.7059 -5.7142,-5.7143 4.7058,-1.0084 4.7058,-1.0084 5.7142,-5.7143 1.0085,4.7059 1.0085,4.7059 5.7143,5.7143 z"
            fill="#ffffff"
            id="path24"/>
    <path
            d="m 43.8181,8.8025 c -2.0588,0.4412 -2.0588,0.4412 -2.5,2.5 -0.4411,-2.0588 -0.4411,-2.0588 -2.5,-2.5 2.0589,-0.4412 2.0589,-0.4412 2.5,-2.5 0.4412,2.0588 0.4412,2.0588 2.5,2.5 z"
            fill="#ffffff"
            id="path26"/>
    <path
            d="m 40.0325,24.3025 -0.3,0.4 c -0.4944,0.6592 -0.024,1.6 0.8,1.6 h 6.2114 c 0.7821,0 1.2615,-0.8574 0.8519,-1.5237 l -0.2952,-0.4802"
            stroke="#235b59"
            stroke-width="3"
            id="path28"/>
    <path
            d="m 61.795,21.3675 c 0.4083,0.4433 0.8517,0.7583 1.33,0.945 0.4783,0.1867 0.98,0.28 1.505,0.28 0.5017,0 0.9625,-0.0992 1.3825,-0.2975 0.42,-0.1983 0.7817,-0.5133 1.085,-0.945 0.315,-0.4433 0.56,-1.015 0.735,-1.715 0.175,-0.7 0.2625,-1.5517 0.2625,-2.555 0,-0.9567 -0.07,-1.7617 -0.21,-2.415 -0.14,-0.6533 -0.3383,-1.1783 -0.595,-1.575 -0.245,-0.4083 -0.5425,-0.7 -0.8925,-0.875 -0.35,-0.175 -0.7408,-0.2625 -1.1725,-0.2625 -0.7933,0 -1.4467,0.1458 -1.96,0.4375 -0.5133,0.2917 -1.0033,0.7175 -1.47,1.2775 z M 61.4625,10.395 c 0.7117,-0.7583 1.5167,-1.3767 2.415,-1.855 0.91,-0.49 1.9892,-0.735 3.2375,-0.735 0.945,0 1.82,0.21 2.625,0.63 0.805,0.42 1.4992,1.0267 2.0825,1.82 0.5833,0.7933 1.0383,1.7675 1.365,2.9225 0.3383,1.1433 0.5075,2.4442 0.5075,3.9025 0,1.365 -0.1925,2.625 -0.5775,3.78 -0.3733,1.155 -0.9042,2.1583 -1.5925,3.01 -0.6767,0.8517 -1.4933,1.5167 -2.45,1.995 -0.945,0.4783 -1.995,0.7175 -3.15,0.7175 -0.945,0 -1.7383,-0.1342 -2.38,-0.4025 -0.6417,-0.2683 -1.225,-0.63 -1.75,-1.085 V 32.06 H 56.37 V 8.155 h 3.36 c 0.6767,0 1.12,0.3033 1.33,0.91 z M 81.2268,9.7475 c 0.6534,-0.56 1.3592,-1.0092 2.1175,-1.3475 0.77,-0.35 1.6859,-0.525 2.7475,-0.525 0.9917,0 1.8667,0.175 2.625,0.525 0.77,0.3383 1.4175,0.8167 1.9425,1.435 0.525,0.6067 0.9217,1.3358 1.19,2.1875 0.2684,0.84 0.4025,1.7558 0.4025,2.7475 v 11.5325 h -5.425 V 14.77 c 0,-0.8867 -0.2041,-1.575 -0.6125,-2.065 -0.4083,-0.5017 -1.0091,-0.7525 -1.8025,-0.7525 -0.595,0 -1.155,0.1283 -1.68,0.385 -0.5133,0.245 -1.015,0.5833 -1.505,1.015 v 12.95 h -5.425 V 0.105 h 5.425 z m 25.1237,5.3025 c 0,-0.4317 -0.059,-0.8517 -0.175,-1.26 -0.105,-0.4083 -0.286,-0.77 -0.543,-1.085 -0.245,-0.3267 -0.571,-0.5892 -0.98,-0.7875 -0.408,-0.1983 -0.904,-0.2975 -1.487,-0.2975 -1.027,0 -1.832,0.2975 -2.415,0.8925 -0.584,0.5833 -0.969,1.4292 -1.155,2.5375 z m -6.825,3.15 c 0.175,1.5167 0.636,2.6192 1.382,3.3075 0.747,0.6767 1.709,1.015 2.888,1.015 0.63,0 1.172,-0.0758 1.627,-0.2275 0.455,-0.1517 0.858,-0.3208 1.208,-0.5075 0.361,-0.1867 0.688,-0.3558 0.98,-0.5075 0.303,-0.1517 0.618,-0.2275 0.945,-0.2275 0.431,0 0.758,0.1575 0.98,0.4725 l 1.575,1.9425 c -0.56,0.6417 -1.167,1.1667 -1.82,1.575 -0.642,0.3967 -1.307,0.7117 -1.995,0.945 -0.677,0.2217 -1.359,0.3733 -2.048,0.455 -0.676,0.0933 -1.324,0.14 -1.942,0.14 -1.272,0 -2.468,-0.2042 -3.588,-0.6125 -1.108,-0.42 -2.082,-1.0383 -2.9222,-1.855 -0.8284,-0.8167 -1.4875,-1.8317 -1.9775,-3.045 -0.4784,-1.2133 -0.7175,-2.625 -0.7175,-4.235 0,-1.2133 0.2041,-2.3625 0.6125,-3.4475 0.42,-1.085 1.015,-2.0358 1.785,-2.8525 0.7816,-0.8167 1.7207,-1.4642 2.8177,-1.9425 1.108,-0.4783 2.356,-0.7175 3.745,-0.7175 1.201,0 2.298,0.1867 3.29,0.56 1.003,0.3733 1.861,0.9158 2.572,1.6275 0.724,0.7117 1.284,1.5867 1.68,2.625 0.409,1.0267 0.613,2.1933 0.613,3.5 0,0.4083 -0.018,0.7408 -0.053,0.9975 -0.035,0.2567 -0.099,0.4608 -0.192,0.6125 -0.094,0.1517 -0.222,0.2567 -0.385,0.315 -0.152,0.0583 -0.35,0.0875 -0.595,0.0875 z m 27.039,-5.74 c -0.163,0.1983 -0.32,0.3558 -0.472,0.4725 -0.152,0.1167 -0.368,0.175 -0.648,0.175 -0.268,0 -0.513,-0.0642 -0.735,-0.1925 -0.21,-0.1283 -0.449,-0.2683 -0.717,-0.42 -0.268,-0.1633 -0.583,-0.3092 -0.945,-0.4375 -0.362,-0.1283 -0.811,-0.1925 -1.348,-0.1925 -0.665,0 -1.242,0.1225 -1.732,0.3675 -0.478,0.245 -0.875,0.595 -1.19,1.05 -0.315,0.455 -0.548,1.015 -0.7,1.68 -0.152,0.6533 -0.228,1.3942 -0.228,2.2225 0,1.7383 0.333,3.0742 0.998,4.0075 0.677,0.9333 1.604,1.4 2.782,1.4 0.63,0 1.126,-0.0758 1.488,-0.2275 0.373,-0.1633 0.688,-0.3383 0.945,-0.525 0.257,-0.1983 0.49,-0.3792 0.7,-0.5425 0.222,-0.1633 0.496,-0.245 0.822,-0.245 0.432,0 0.759,0.1575 0.98,0.4725 l 1.575,1.9425 c -0.56,0.6417 -1.149,1.1667 -1.767,1.575 -0.618,0.3967 -1.254,0.7117 -1.908,0.945 -0.641,0.2217 -1.289,0.3733 -1.942,0.455 -0.653,0.0933 -1.289,0.14 -1.908,0.14 -1.108,0 -2.17,-0.21 -3.185,-0.63 -1.003,-0.42 -1.89,-1.0267 -2.66,-1.82 -0.758,-0.805 -1.365,-1.7908 -1.82,-2.9575 -0.443,-1.1667 -0.665,-2.4967 -0.665,-3.99 0,-1.3067 0.193,-2.5258 0.578,-3.6575 0.397,-1.1433 0.974,-2.1292 1.732,-2.9575 0.77,-0.84 1.715,-1.4992 2.835,-1.9775 1.132,-0.4783 2.439,-0.7175 3.92,-0.7175 1.424,0 2.672,0.2275 3.745,0.6825 1.074,0.455 2.042,1.12 2.905,1.995 z m 8.534,-4.305 v 18.1475 h -5.425 V 8.155 Z m 0.56,-4.97 c 0,0.4317 -0.087,0.84 -0.262,1.225 -0.175,0.3733 -0.414,0.7058 -0.718,0.9975 -0.303,0.28 -0.659,0.5075 -1.067,0.6825 -0.397,0.1633 -0.823,0.245 -1.278,0.245 -0.443,0 -0.857,-0.0817 -1.242,-0.245 -0.385,-0.175 -0.729,-0.4025 -1.033,-0.6825 -0.291,-0.2917 -0.525,-0.6242 -0.7,-0.9975 -0.163,-0.385 -0.245,-0.7933 -0.245,-1.225 0,-0.4433 0.082,-0.8575 0.245,-1.2425 0.175,-0.385 0.409,-0.72333 0.7,-1.015 0.304,-0.29167 0.648,-0.51917 1.033,-0.6825 0.385,-0.16333 0.799,-0.245 1.242,-0.245 0.455,0 0.881,0.08167 1.278,0.245 0.408,0.16333 0.764,0.39083 1.067,0.6825 0.304,0.29167 0.543,0.63 0.718,1.015 0.175,0.385 0.262,0.7992 0.262,1.2425 z m 13.812,11.865 c 0,-0.4317 -0.059,-0.8517 -0.175,-1.26 -0.105,-0.4083 -0.286,-0.77 -0.543,-1.085 -0.245,-0.3267 -0.572,-0.5892 -0.98,-0.7875 -0.408,-0.1983 -0.904,-0.2975 -1.487,-0.2975 -1.027,0 -1.832,0.2975 -2.415,0.8925 -0.584,0.5833 -0.969,1.4292 -1.155,2.5375 z m -6.825,3.15 c 0.175,1.5167 0.635,2.6192 1.382,3.3075 0.747,0.6767 1.709,1.015 2.888,1.015 0.63,0 1.172,-0.0758 1.627,-0.2275 0.455,-0.1517 0.858,-0.3208 1.208,-0.5075 0.361,-0.1867 0.688,-0.3558 0.98,-0.5075 0.303,-0.1517 0.618,-0.2275 0.945,-0.2275 0.431,0 0.758,0.1575 0.98,0.4725 l 1.575,1.9425 c -0.56,0.6417 -1.167,1.1667 -1.82,1.575 -0.642,0.3967 -1.307,0.7117 -1.995,0.945 -0.677,0.2217 -1.36,0.3733 -2.048,0.455 -0.677,0.0933 -1.324,0.14 -1.942,0.14 -1.272,0 -2.468,-0.2042 -3.588,-0.6125 -1.108,-0.42 -2.082,-1.0383 -2.922,-1.855 -0.829,-0.8167 -1.488,-1.8317 -1.978,-3.045 -0.478,-1.2133 -0.717,-2.625 -0.717,-4.235 0,-1.2133 0.204,-2.3625 0.612,-3.4475 0.42,-1.085 1.015,-2.0358 1.785,-2.8525 0.782,-0.8167 1.721,-1.4642 2.818,-1.9425 1.108,-0.4783 2.356,-0.7175 3.745,-0.7175 1.201,0 2.298,0.1867 3.29,0.56 1.003,0.3733 1.86,0.9158 2.572,1.6275 0.723,0.7117 1.283,1.5867 1.68,2.625 0.408,1.0267 0.612,2.1933 0.612,3.5 0,0.4083 -0.017,0.7408 -0.052,0.9975 -0.035,0.2567 -0.099,0.4608 -0.192,0.6125 -0.094,0.1517 -0.222,0.2567 -0.385,0.315 -0.152,0.0583 -0.35,0.0875 -0.595,0.0875 z m 25.237,-6.0725 c -0.14,0.2217 -0.292,0.3792 -0.455,0.4725 -0.152,0.0933 -0.35,0.14 -0.595,0.14 -0.257,0 -0.514,-0.0525 -0.77,-0.1575 -0.257,-0.1167 -0.537,-0.2392 -0.84,-0.3675 -0.292,-0.1283 -0.624,-0.245 -0.998,-0.35 -0.373,-0.1167 -0.799,-0.175 -1.277,-0.175 -0.689,0 -1.219,0.1342 -1.593,0.4025 -0.361,0.2567 -0.542,0.6183 -0.542,1.085 0,0.3383 0.116,0.6183 0.35,0.84 0.245,0.2217 0.566,0.42 0.962,0.595 0.397,0.1633 0.846,0.3208 1.348,0.4725 0.501,0.1517 1.015,0.3208 1.54,0.5075 0.525,0.1867 1.038,0.4083 1.54,0.665 0.501,0.245 0.951,0.5542 1.347,0.9275 0.397,0.3617 0.712,0.805 0.945,1.33 0.245,0.525 0.368,1.155 0.368,1.89 0,0.8983 -0.164,1.7267 -0.49,2.485 -0.327,0.7583 -0.817,1.4117 -1.47,1.96 -0.642,0.5483 -1.441,0.9742 -2.398,1.2775 -0.945,0.3033 -2.036,0.455 -3.272,0.455 -0.619,0 -1.237,-0.0583 -1.855,-0.175 -0.619,-0.1167 -1.219,-0.2742 -1.803,-0.4725 -0.571,-0.1983 -1.102,-0.4317 -1.592,-0.7 -0.49,-0.28 -0.91,-0.5775 -1.26,-0.8925 l 1.26,-1.995 c 0.14,-0.2333 0.315,-0.4142 0.525,-0.5425 0.221,-0.14 0.501,-0.21 0.84,-0.21 0.315,0 0.595,0.07 0.84,0.21 0.256,0.14 0.531,0.2917 0.822,0.455 0.292,0.1633 0.63,0.315 1.015,0.455 0.397,0.14 0.893,0.21 1.488,0.21 0.42,0 0.776,-0.0408 1.067,-0.1225 0.292,-0.0933 0.525,-0.2158 0.7,-0.3675 0.175,-0.1517 0.304,-0.3208 0.385,-0.5075 0.082,-0.1867 0.123,-0.3792 0.123,-0.5775 0,-0.3617 -0.123,-0.6592 -0.368,-0.8925 -0.245,-0.2333 -0.566,-0.4317 -0.962,-0.595 -0.397,-0.175 -0.852,-0.3325 -1.365,-0.4725 -0.502,-0.1517 -1.015,-0.3208 -1.54,-0.5075 -0.525,-0.1867 -1.044,-0.4083 -1.558,-0.665 -0.501,-0.2683 -0.951,-0.6008 -1.347,-0.9975 -0.397,-0.4083 -0.718,-0.9042 -0.963,-1.4875 -0.245,-0.5833 -0.367,-1.2892 -0.367,-2.1175 0,-0.77 0.146,-1.4992 0.437,-2.1875 0.304,-0.7 0.753,-1.3125 1.348,-1.8375 0.595,-0.525 1.341,-0.9392 2.24,-1.2425 0.898,-0.315 1.948,-0.4725 3.15,-0.4725 0.653,0 1.283,0.0583 1.89,0.175 0.618,0.1167 1.196,0.28 1.732,0.49 0.537,0.21 1.027,0.4608 1.47,0.7525 0.444,0.28 0.834,0.5892 1.173,0.9275 z"
            fill="#235b59"
            id="path30"/>
    <path
            d="m 8.995,13.3175 c 1.54,0 2.6483,-0.3675 3.325,-1.1025 0.6767,-0.735 1.015,-1.7617 1.015,-3.08 0,-0.5833 -0.0875,-1.1142 -0.2625,-1.5925 -0.175,-0.4783 -0.4433,-0.8867 -0.805,-1.225 -0.35,-0.35 -0.7992,-0.6183 -1.3475,-0.805 -0.5367,-0.1867 -1.1783,-0.28 -1.925,-0.28 h -3.08 v 8.085 z m 0,-12.5125 c 1.7967,0 3.3367,0.21583 4.62,0.6475 1.295,0.42 2.3567,1.0033 3.185,1.75 0.84,0.7467 1.4583,1.6275 1.855,2.6425 0.3967,1.015 0.595,2.1117 0.595,3.29 0,1.2717 -0.2042,2.4383 -0.6125,3.5 -0.4083,1.0617 -1.0325,1.9717 -1.8725,2.73 -0.84,0.7583 -1.9075,1.3533 -3.2025,1.785 -1.2833,0.42 -2.8058,0.63 -4.5675,0.63 h -3.08 v 8.5225 H 0 V 0.805 Z m 16.7617,10.15 c 0.56,-0.98 1.2017,-1.75 1.925,-2.31 0.735,-0.56 1.575,-0.84 2.52,-0.84 0.8167,0 1.4817,0.1925 1.995,0.5775 l -0.35,3.99 c -0.0583,0.2567 -0.1575,0.4317 -0.2975,0.525 -0.1283,0.0933 -0.3091,0.14 -0.5425,0.14 -0.0933,0 -0.2158,-0.0058 -0.3675,-0.0175 -0.1516,-0.0117 -0.3091,-0.0233 -0.4725,-0.035 -0.1633,-0.0233 -0.3325,-0.0408 -0.5075,-0.0525 -0.1633,-0.0233 -0.315,-0.035 -0.455,-0.035 -0.7933,0 -1.4291,0.21 -1.9075,0.63 -0.4666,0.42 -0.8633,1.0033 -1.19,1.75 v 11.025 h -5.425 V 8.155 h 3.22 c 0.2684,0 0.49,0.0233 0.665,0.07 0.1867,0.0467 0.3384,0.1225 0.455,0.2275 0.1284,0.0933 0.2217,0.2217 0.28,0.385 0.07,0.1633 0.1284,0.3617 0.175,0.595 z"
            fill="#235b59"
            id="path32"/>
</svg>
