<?xml version="1.0" standalone="no"?>
<!DOCTYPE svg PUBLIC "-//W3C//DTD SVG 20010904//EN"
 "http://www.w3.org/TR/2001/REC-SVG-20010904/DTD/svg10.dtd">
<svg version="1.0" xmlns="http://www.w3.org/2000/svg"
 width="700.000000pt" height="700.000000pt" viewBox="0 0 700.000000 700.000000"
 preserveAspectRatio="xMidYMid meet">
<metadata>
Created by potrace 1.14, written by Peter Selinger 2001-2017
</metadata>
<g transform="translate(0.000000,700.000000) scale(0.100000,-0.100000)"
fill="#000000" stroke="none">
<path d="M3285 6994 c-616 -51 -1162 -268 -1645 -653 -126 -100 -346 -321
-449 -451 -389 -490 -608 -1063 -640 -1678 -24 -442 41 -855 195 -1244 165
-417 380 -737 705 -1053 471 -456 1057 -733 1715 -810 170 -20 499 -20 674 1
463 53 902 213 1293 471 353 232 688 583 903 945 308 519 445 1076 413 1688
-25 496 -176 975 -439 1394 -472 755 -1238 1250 -2120 1371 -111 15 -502 27
-605 19z m-136 -886 c80 -377 143 -453 435 -528 61 -15 139 -34 173 -40 69
-14 73 -24 16 -34 -112 -20 -297 -72 -359 -100 -143 -66 -195 -157 -259 -446
-14 -63 -28 -122 -32 -130 -3 -8 -18 39 -33 105 -72 321 -118 403 -264 471
-63 29 -336 104 -379 104 -8 0 -18 4 -21 8 -3 4 61 23 142 41 272 61 369 116
432 245 28 56 110 354 110 399 0 9 3 17 8 17 4 0 18 -51 31 -112z m1246 -183
c98 -452 160 -658 248 -830 42 -83 66 -115 141 -191 181 -180 372 -249 1159
-419 43 -9 77 -18 75 -20 -2 -2 -107 -27 -233 -55 -461 -102 -639 -155 -807
-242 -104 -53 -209 -140 -272 -227 -83 -113 -155 -294 -224 -566 -36 -139
-132 -564 -132 -582 0 -27 -15 31 -55 212 -101 460 -161 660 -246 825 -134
260 -322 378 -794 498 -139 36 -564 132 -582 132 -28 0 33 16 212 55 452 98
658 160 830 248 83 42 115 66 191 141 75 76 99 108 141 191 63 124 109 253
161 460 37 145 132 563 132 581 0 29 15 -30 55 -211z"/>
<path d="M1842 1335 c-36 -30 -67 -100 -90 -202 -25 -114 -24 -546 2 -688 37
-204 101 -358 173 -412 l36 -28 1613 0 1613 0 28 21 c57 42 101 133 131 274
23 109 23 516 -1 655 -34 196 -88 344 -139 379 -50 35 -66 26 -179 -106 -125
-144 -435 -246 -924 -305 -217 -26 -905 -26 -1115 0 -372 46 -619 108 -805
205 -50 26 -95 61 -155 123 -117 119 -137 127 -188 84z"/>
</g>
</svg>
