<svg viewBox="0 0 65 65" xmlns="http://www.w3.org/2000/svg">
    <path d="M17.452 47.14V17.444H13V47.14h4.452zm13.267-19.856h4.496v-2.182c0-2.79-.55-4.837-1.647-6.143C32.47 17.653 30.704 17 28.27 17c-1.573 0-2.82.267-3.74.801a5.435 5.435 0 0 0-2.114 2.182c-.49.92-.802 2.01-.935 3.272a38.328 38.328 0 0 0-.2 4.029v10.284c0 1.721.089 3.213.267 4.474.178 1.261.526 2.3 1.046 3.116a4.753 4.753 0 0 0 2.137 1.826c.905.4 2.085.6 3.539.6 1.365 0 2.493-.23 3.383-.69a5.55 5.55 0 0 0 2.137-1.914c.535-.816.906-1.773 1.113-2.871.208-1.098.312-2.27.312-3.517v-1.96h-4.496c0 .684-.008 1.47-.023 2.36-.015.89-.052 1.544-.111 1.96-.06.77-.252 1.38-.579 1.825-.326.445-.92.667-1.78.667-.653 0-1.136-.148-1.447-.445-.312-.297-.557-.712-.735-1.246-.119-.327-.2-.839-.245-1.536-.044-.698-.067-1.759-.067-3.183v-9.438c0-1.247.023-2.234.067-2.961.045-.727.097-1.24.156-1.536.148-.623.4-1.105.757-1.447.356-.341.905-.512 1.647-.512.772 0 1.336.215 1.692.646.356.43.549 1.001.579 1.714l.089 3.784zm21.68-9.839h-4.452v21.058c.03 1.691-.126 2.849-.467 3.472-.341.623-.957.965-1.848 1.024h-1.068v4.14h2.137c1.098-.03 2.018-.207 2.76-.534.742-.326 1.336-.853 1.78-1.58.446-.727.758-1.677.936-2.85.178-1.172.252-2.634.222-4.385V17.445zM43.05 47.14V17.445h-4.452V47.14h4.452z"
          fill="#000" fill-rule="evenodd"/>
</svg>
