<?xml version="1.0" encoding="UTF-8" standalone="no"?>
<svg
        xmlns:dc="http://purl.org/dc/elements/1.1/"
        xmlns:cc="http://creativecommons.org/ns#"
        xmlns:rdf="http://www.w3.org/1999/02/22-rdf-syntax-ns#"
        xmlns:svg="http://www.w3.org/2000/svg"
        xmlns="http://www.w3.org/2000/svg"
        xmlns:sodipodi="http://sodipodi.sourceforge.net/DTD/sodipodi-0.dtd"
        xmlns:inkscape="http://www.inkscape.org/namespaces/inkscape"
        width="13"
        height="13"
        viewBox="0 0 1792 1792"
        version="1.1"
        id="svg4"
        sodipodi:docname="tooltag-upload.svg"
        inkscape:version="1.0.1 (3bc2e813f5, 2020-09-07)">
    <metadata
            id="metadata10">
        <rdf:RDF>
            <cc:Work
                    rdf:about="">
                <dc:format>image/svg+xml</dc:format>
                <dc:type
                        rdf:resource="http://purl.org/dc/dcmitype/StillImage"/>
                <dc:title></dc:title>
            </cc:Work>
        </rdf:RDF>
    </metadata>
    <defs
            id="defs8"/>
    <sodipodi:namedview
            pagecolor="#ffffff"
            bordercolor="#666666"
            borderopacity="1"
            objecttolerance="10"
            gridtolerance="10"
            guidetolerance="10"
            inkscape:pageopacity="0"
            inkscape:pageshadow="2"
            inkscape:window-width="1920"
            inkscape:window-height="1016"
            id="namedview6"
            showgrid="false"
            inkscape:zoom="11.721655"
            inkscape:cx="1.5205047"
            inkscape:cy="9.3049277"
            inkscape:window-x="0"
            inkscape:window-y="27"
            inkscape:window-maximized="1"
            inkscape:current-layer="svg4"/>
    <path
            fill="currentColor"
            d="m 1005.9965,1209.7722 h -219.994 c -36.574,0 -65.998,-29.428 -65.998,-66.007 v -462.055 h -241.168 c -48.949,0 -73.423,-59.132 -38.774,-93.786 l 418.263,-418.6 c 20.625,-20.627 54.449,-20.627 75.073,0 l 418.539,418.6 c 34.649,34.654 10.174,93.786 -38.774,93.786 h -241.169 v 462.055 c 0,36.579 -29.424,66.007 -65.998,66.007 z m 593.984,-22.002 v 308.036 c 0,36.58 -29.425,66.008 -65.999,66.008 H 258.0175 c -36.574,0 -65.998,-29.428 -65.998,-66.008 v -308.036 c 0,-36.58 29.424,-66.008 65.998,-66.008 h 373.99 v 22.003 c 0,84.985 69.023,154.018 153.995,154.018 h 219.994 c 84.973,0 153.996,-69.033 153.996,-154.018 v -22.003 h 373.989 c 36.574,0 65.999,29.428 65.999,66.008 z m -340.991,242.028 c 0,-30.253 -24.749,-55.006 -54.998,-55.006 -30.249,0 -54.999,24.753 -54.999,55.006 0,30.254 24.75,55.007 54.999,55.007 30.249,0 54.998,-24.753 54.998,-55.007 z m 175.995,0 c 0,-30.253 -24.749,-55.006 -54.998,-55.006 -30.249,0 -54.999,24.753 -54.999,55.006 0,30.254 24.75,55.007 54.999,55.007 30.249,0 54.998,-24.753 54.998,-55.007 z"
            id="path899"
            style="fill:#ffffff;stroke-width:2.75012"/>
</svg>
