<?xml version="1.0" encoding="UTF-8" standalone="no"?>
<svg
   xmlns:dc="http://purl.org/dc/elements/1.1/"
   xmlns:cc="http://creativecommons.org/ns#"
   xmlns:rdf="http://www.w3.org/1999/02/22-rdf-syntax-ns#"
   xmlns:svg="http://www.w3.org/2000/svg"
   xmlns="http://www.w3.org/2000/svg"
   xmlns:sodipodi="http://sodipodi.sourceforge.net/DTD/sodipodi-0.dtd"
   xmlns:inkscape="http://www.inkscape.org/namespaces/inkscape"
   width="13"
   height="13"
   viewBox="0 0 1792 1792"
   version="1.1"
   id="svg4"
   sodipodi:docname="tooltag-export.svg"
   inkscape:version="1.0.1 (3bc2e813f5, 2020-09-07)">
  <metadata
     id="metadata10">
    <rdf:RDF>
      <cc:Work
         rdf:about="">
        <dc:format>image/svg+xml</dc:format>
        <dc:type
           rdf:resource="http://purl.org/dc/dcmitype/StillImage" />
        <dc:title></dc:title>
      </cc:Work>
    </rdf:RDF>
  </metadata>
  <defs
     id="defs8" />
  <sodipodi:namedview
     pagecolor="#ffffff"
     bordercolor="#666666"
     borderopacity="1"
     objecttolerance="10"
     gridtolerance="10"
     guidetolerance="10"
     inkscape:pageopacity="0"
     inkscape:pageshadow="2"
     inkscape:window-width="1920"
     inkscape:window-height="1016"
     id="namedview6"
     showgrid="false"
     inkscape:zoom="1.4652068"
     inkscape:cx="-45.606741"
     inkscape:cy="3.675215"
     inkscape:window-x="0"
     inkscape:window-y="27"
     inkscape:window-maximized="1"
     inkscape:current-layer="svg4" />
  <path
     fill="currentColor"
     d="m 786.0025,153.78925 h 219.994 c 36.574,0 65.998,29.424 65.998,65.998 v 461.987 h 241.169 c 48.948,0 73.423,59.124 38.774,93.773 l -418.264,418.53795 c -20.624,20.624 -54.448,20.624 -75.073,0 L 439.7875,775.54725 c -34.649,-34.649 -10.175,-93.773 38.774,-93.773 h 241.443 v -461.987 c 0,-36.574 29.424,-65.998 65.998,-65.998 z m 813.978,1033.97095 v 307.991 c 0,36.574 -29.425,65.999 -65.999,65.999 H 258.0175 c -36.574,0 -65.998,-29.425 -65.998,-65.999 v -307.991 c 0,-36.574 29.424,-65.998 65.998,-65.998 h 403.414 l 134.746,134.746 c 55.274,55.274 144.371,55.274 199.645,0 l 134.746,-134.746 h 403.413 c 36.574,0 65.999,29.424 65.999,65.998 z m -340.991,241.993 c 0,-30.249 -24.749,-54.998 -54.998,-54.998 -30.249,0 -54.999,24.749 -54.999,54.998 0,30.249 24.75,54.999 54.999,54.999 30.249,0 54.998,-24.75 54.998,-54.999 z m 175.995,0 c 0,-30.249 -24.749,-54.998 -54.998,-54.998 -30.249,0 -54.999,24.749 -54.999,54.998 0,30.249 24.75,54.999 54.999,54.999 30.249,0 54.998,-24.75 54.998,-54.999 z"
     id="path835"
     style="stroke-width:2.74992;fill:#ffffff" />
</svg>
